<?xml version="1.0" encoding="utf-8"?>
<!-- Generator: Adobe Illustrator 24.0.3, SVG Export Plug-In . SVG Version: 6.00 Build 0)  -->
<svg version="1.1" id="Calque_1" xmlns="http://www.w3.org/2000/svg" xmlns:xlink="http://www.w3.org/1999/xlink" x="0px" y="0px"
	 viewBox="0 0 24 24" style="enable-background:new 0 0 24 24;" xml:space="preserve">
<style type="text/css">
	.st0{fill:none;stroke:#000000;stroke-miterlimit:10;}
</style>
<title>Redbubble icon</title>
<path class="st0" d="M16.6,16.3h-3.2c-0.2,0-0.3-0.1-0.3-0.3c0,0,0,0,0,0V8c0-0.2,0.1-0.3,0.3-0.3h3c2.2,0,2.7,1.3,2.7,2.4
	c0,0.6-0.2,1.1-0.5,1.5c0.8,0.3,1.3,1.1,1.3,2.2C19.8,15.4,18.6,16.3,16.6,16.3 M12,16.3H5.3C5.2,16.3,5,16.2,5,16c0,0,0,0,0,0V8
	c0-0.2,0.1-0.3,0.3-0.3c0,0,0,0,0,0h3.1c1.9,0,3.1,1,3.1,2.8c0,1.2-0.6,2.1-1.5,2.4l2.2,2.9c0.1,0.1,0.1,0.3,0,0.5
	C12.1,16.3,12.1,16.3,12,16.3 M12,0C5.4,0,0,5.4,0,12s5.4,12,12,12c6.6,0,12-5.4,12-12S18.6,0,12,0"/>
</svg>
